<svg width="370" height="234" viewBox="0 0 370 234" fill="none" xmlns="http://www.w3.org/2000/svg">
<rect x="0.5" y="0.5" width="369" height="233" rx="4.5" stroke="#9747FF" stroke-dasharray="10 5"/>
<circle cx="32" cy="32" r="12" fill="#1ED760"/>
<path d="M35.6364 31.2127C36.2424 31.5626 36.2424 32.4374 35.6364 32.7873L30.8636 35.5428C30.2576 35.8927 29.5 35.4554 29.5 34.7555L29.5 29.2445C29.5 28.5446 30.2576 28.1073 30.8636 28.4572L35.6364 31.2127Z" fill="black"/>
<path d="M69.6364 31.2127C70.2424 31.5626 70.2424 32.4374 69.6364 32.7873L64.8636 35.5428C64.2576 35.8927 63.5 35.4554 63.5 34.7555L63.5 29.2445C63.5 28.5446 64.2576 28.1073 64.8636 28.4572L69.6364 31.2127Z" fill="#898989"/>
<circle cx="100" cy="32" r="12" fill="#1ED760"/>
<path d="M98 29V35" stroke="black" stroke-width="2" stroke-linecap="round"/>
<path d="M102 29V35" stroke="black" stroke-width="2" stroke-linecap="round"/>
<path d="M132 29V35" stroke="#898989" stroke-width="2" stroke-linecap="round"/>
<path d="M136 29V35" stroke="#898989" stroke-width="2" stroke-linecap="round"/>
<path d="M171 29V35" stroke="#898989" stroke-width="1.5" stroke-linecap="round"/>
<path d="M169.807 31.2348C170.365 31.5925 170.365 32.4075 169.807 32.7652L165.65 35.4321C165.045 35.8202 164.25 35.3857 164.25 34.6669L164.25 29.3331C164.25 28.6143 165.045 28.1798 165.65 28.5679L169.807 31.2348Z" fill="#898989"/>
<path d="M199 29V35" stroke="#898989" stroke-width="1.5" stroke-linecap="round"/>
<path d="M200.193 32.7652C199.635 32.4075 199.635 31.5925 200.193 31.2348L204.35 28.5679C204.955 28.1798 205.75 28.6143 205.75 29.3331V34.6669C205.75 35.3857 204.955 35.8202 204.35 35.4321L200.193 32.7652Z" fill="#898989"/>
<path d="M237 29L234 32L237 35" stroke="#898989" stroke-width="1.4" stroke-linecap="round" stroke-linejoin="round"/>
<path d="M269 35L272 32L269 29" stroke="#898989" stroke-width="1.4" stroke-linecap="round" stroke-linejoin="round"/>
<path d="M301 31L304 34L307 31" stroke="#898989" stroke-width="1.4" stroke-linecap="round" stroke-linejoin="round"/>
<path d="M341 33L338 30L335 33" stroke="#898989" stroke-width="1.4" stroke-linecap="round" stroke-linejoin="round"/>
<path d="M29.5 69.5H28C26.8954 69.5 26 68.6046 26 67.5V63.5C26 62.3954 26.8954 61.5 28 61.5H36C37.1046 61.5 38 62.3954 38 63.5V67.5C38 68.6046 37.1046 69.5 36 69.5H32M32 69.5L34 67.5M32 69.5L34 71.5" stroke="#898989" stroke-width="1.2" stroke-linecap="round" stroke-linejoin="round"/>
<path d="M60 61.5V61.5C60.9381 61.5 61.8153 61.9651 62.3417 62.7416L62.838 63.4737L63.5069 64.4606M71.0741 69.3947H68.1492C67.365 69.3947 66.612 69.0877 66.0515 68.5394L65.5 68M71.0741 69.3947L69 71.5M71.0741 69.3947L69 67.2895" stroke="#898989" stroke-width="1.2" stroke-linecap="round" stroke-linejoin="round"/>
<path d="M60 70.5995V70.5995C60.9405 70.5995 61.8222 70.142 62.3636 69.3731L66.0297 64.167C66.5916 63.3691 67.5066 62.8943 68.4825 62.8943H71.0741M71.0741 62.8943L69 60.7891M71.0741 62.8943L69 64.9996" stroke="#898989" stroke-width="1.2" stroke-linecap="round" stroke-linejoin="round"/>
<path d="M103 63L100 66M97 69L100 66M100 66L97 63M100 66L103 69" stroke="#898989" stroke-width="1.2" stroke-linecap="round" stroke-linejoin="round"/>
<path d="M134 61.7574V66M134 70.2426V66M134 66L129.757 66M134 66H138.243" stroke="#898989" stroke-width="1.2" stroke-linecap="round" stroke-linejoin="round"/>
<path d="M169.107 62.0579L168 63.1304L166.893 62.0579C165.732 60.9332 163.87 60.9953 162.787 62.1948C161.736 63.3587 161.591 65.1021 162.543 66.3485C162.66 66.5017 162.775 66.6483 162.885 66.7826C163.577 67.6325 165.089 69.1166 165.846 69.913C166.406 70.5015 166.909 70.9922 167.287 71.3497C167.688 71.7272 168.305 71.7189 168.706 71.3423C169.405 70.6858 170.476 69.6632 171.231 68.8696C171.988 68.0731 172.423 67.6325 173.115 66.7826C173.225 66.6483 173.34 66.5017 173.457 66.3485C174.409 65.1021 174.264 63.3587 173.213 62.1948C172.13 60.9953 170.268 60.9332 169.107 62.0579Z" stroke="#898989" stroke-width="1.2" stroke-linecap="round" stroke-linejoin="round"/>
<circle cx="202" cy="66" r="5.5" stroke="#898989"/>
<path d="M204.551 65.989H201.99M199.429 65.989H201.99M201.99 65.989L201.99 63.4277M201.99 65.989V68.5503" stroke="#898989" stroke-linecap="round" stroke-linejoin="round"/>
<path d="M241.5 66C241.5 67.3952 240.981 68.668 240.125 69.6379C239.117 70.7805 237.643 71.5 236 71.5C232.962 71.5 230.5 69.0376 230.5 66C230.5 64.591 231.029 63.3068 231.9 62.3335C232.908 61.2075 234.371 60.5 236 60.5C239.038 60.5 241.5 62.9624 241.5 66Z" stroke="#898989"/>
<path d="M270 63V68.8571M270 68.8571L272 66.8571M270 68.8571L268 66.8571" stroke="#898989" stroke-width="1.2" stroke-linecap="round" stroke-linejoin="round"/>
<circle cx="270" cy="66" r="5.5" stroke="#898989"/>
<g clip-path="url(#clip0_14_11)">
<path d="M307.052 66.0345C308.718 66.0345 310.069 64.6836 310.069 63.0172C310.069 61.3509 308.718 60 307.052 60C305.385 60 304.035 61.3509 304.035 63.0172M307.052 66.0345C305.385 66.0345 304.035 64.6836 304.035 63.0172M307.052 66.0345L300.599 71.7614C300.313 72.0151 299.944 72.1552 299.562 72.1552V72.1552C298.699 72.1552 298 71.4496 298 70.5869V70.5869C298 70.2098 298.136 69.843 298.382 69.5577L304.035 63.0172" stroke="#898989"/>
</g>
<path d="M333 62.6667C333 61.7462 333.746 61 334.667 61H341.333C342.254 61 343 61.7462 343 62.6667V62.6667C343 63.5871 342.254 64.3333 341.333 64.3333H334.667C333.746 64.3333 333 63.5871 333 62.6667V62.6667Z" stroke="#898989" stroke-width="1.4"/>
<path d="M333 67.666L343 67.666" stroke="#898989" stroke-width="1.4" stroke-linecap="round" stroke-linejoin="round"/>
<path d="M333 71L343 71" stroke="#898989" stroke-width="1.4" stroke-linecap="round" stroke-linejoin="round"/>
<path d="M27 101.666L37 101.666" stroke="#898989" stroke-width="1.4" stroke-linecap="round" stroke-linejoin="round"/>
<path d="M27 105L37 105" stroke="#898989" stroke-width="1.4" stroke-linecap="round" stroke-linejoin="round"/>
<path d="M30.508 95.5079L32.0159 97.0158M33.5238 98.5237L32.0159 97.0158M32.0159 97.0158L33.5238 95.5079M32.0159 97.0158L30.508 98.5237" stroke="#898989" stroke-width="1.2" stroke-linecap="round" stroke-linejoin="round"/>
<path d="M65.5 95H62.6667C61.7462 95 61 95.7462 61 96.6667V96.6667C61 97.5871 61.7462 98.3333 62.6667 98.3333H65.5" stroke="#898989" stroke-width="1.4" stroke-linecap="round"/>
<path d="M61 101.666L71 101.666" stroke="#898989" stroke-width="1.4" stroke-linecap="round" stroke-linejoin="round"/>
<path d="M61 105L71 105" stroke="#898989" stroke-width="1.4" stroke-linecap="round" stroke-linejoin="round"/>
<path d="M68 96.5H69.5M71 96.5H69.5M69.5 96.5V95M69.5 96.5V98" stroke="#898989" stroke-width="1.2" stroke-linecap="round" stroke-linejoin="round"/>
<rect x="98.25" y="94.75" width="7" height="10.5" rx="1.75" stroke="#898989" stroke-width="1.225"/>
<circle cx="101.75" cy="101.75" r="1.75" fill="#898989"/>
<circle cx="101.75" cy="97.375" r="0.875" fill="#898989"/>
<circle cx="95.625" cy="104.375" r="0.875" fill="#898989"/>
<path d="M96.0625 101.312H95.625C95.1418 101.312 94.75 100.921 94.75 100.437V97.375C94.75 96.8918 95.1418 96.5 95.625 96.5H96.0625" stroke="#898989" stroke-width="1.225" stroke-linecap="round" stroke-linejoin="round"/>
<g clip-path="url(#clip1_14_11)">
<path d="M133.5 101.5C133.5 100.948 133.948 100.5 134.5 100.5H139C139.552 100.5 140 100.948 140 101.5V104C140 104.552 139.552 105 139 105H134.5C133.948 105 133.5 104.552 133.5 104L133.5 101.5Z" fill="#898989"/>
<path d="M132 104.5H129.5C128.948 104.5 128.5 104.052 128.5 103.5V96.5C128.5 95.9477 128.948 95.5 129.5 95.5H138.5C139.052 95.5 139.5 95.9477 139.5 96.5V99" stroke="#898989" stroke-width="1.2" stroke-linecap="round" stroke-linejoin="round"/>
</g>
<g clip-path="url(#clip2_14_11)">
<path d="M162.857 98.4289V96.5003C162.857 96.1452 163.145 95.8574 163.5 95.8574H165.429" stroke="#898989" stroke-width="1.2" stroke-linecap="round" stroke-linejoin="round"/>
<path d="M173.143 98.4289V96.5003C173.143 96.1452 172.855 95.8574 172.5 95.8574H170.571" stroke="#898989" stroke-width="1.2" stroke-linecap="round" stroke-linejoin="round"/>
<path d="M162.857 101.856V103.785C162.857 104.14 163.145 104.428 163.5 104.428H165.429" stroke="#898989" stroke-width="1.2" stroke-linecap="round" stroke-linejoin="round"/>
<path d="M173.143 101.856V103.785C173.143 104.14 172.855 104.428 172.5 104.428H170.571" stroke="#898989" stroke-width="1.2" stroke-linecap="round" stroke-linejoin="round"/>
</g>
<path d="M206.5 100H198M198 100L201.5 103.5M198 100L201.5 96.5" stroke="#898989" stroke-width="1.2" stroke-linecap="round" stroke-linejoin="round"/>
<path d="M232 100H240.5M240.5 100L237 96.5M240.5 100L237 103.5" stroke="#898989" stroke-width="1.2" stroke-linecap="round" stroke-linejoin="round"/>
<path d="M270.25 95.75V104.25M270.25 104.25L273.75 100.75M270.25 104.25L266.75 100.75" stroke="#898989" stroke-width="1.2" stroke-linecap="round" stroke-linejoin="round"/>
<path d="M304.25 104.25V95.75M304.25 95.75L300.75 99.25M304.25 95.75L307.75 99.25" stroke="#898989" stroke-width="1.2" stroke-linecap="round" stroke-linejoin="round"/>
<g clip-path="url(#clip3_14_11)">
<path d="M333.635 102.147C331.866 101.262 331.866 98.7378 333.635 97.8534L338.821 95.2603C339.087 95.1273 339.4 95.3207 339.4 95.618L339.4 104.382C339.4 104.679 339.087 104.873 338.821 104.74L333.635 102.147Z" stroke="#898989" stroke-width="1.2"/>
<path d="M342 103C342.468 102.872 342.902 102.589 343.247 102.176C343.729 101.599 344 100.816 344 100C344 99.1839 343.729 98.4013 343.247 97.8243C342.902 97.4113 342.468 97.1278 342 97" stroke="#898989" stroke-linecap="round"/>
<path d="M341.5 99.6963C341.5 99.5879 341.591 99.4966 341.691 99.5381C341.752 99.5632 341.807 99.6 341.854 99.6464C341.9 99.6929 341.937 99.748 341.962 99.8087C341.987 99.8693 342 99.9343 342 100C342 100.066 341.987 100.131 341.962 100.191C341.937 100.252 341.9 100.307 341.854 100.354C341.807 100.4 341.752 100.437 341.691 100.462C341.591 100.503 341.5 100.412 341.5 100.304L341.5 100L341.5 99.6963Z" fill="#898989" stroke="#898989" stroke-width="0.5"/>
</g>
<path d="M34 130C34 131.105 33.1046 132 32 132C30.8954 132 30 131.105 30 130C30 128.895 30.8954 128 32 128C33.1046 128 34 128.895 34 130Z" stroke="#898989" stroke-width="1.2"/>
<path d="M27.8906 135.406L28.3359 135.109C29.421 134.386 30.6959 134 32 134C33.3041 134 34.579 134.386 35.6641 135.109L36.1094 135.406C36.6658 135.777 37 136.402 37 137.07V138.067C37 138.582 36.5821 139 36.0667 139H32H27.9333C27.4179 139 27 138.582 27 138.067V137.07C27 136.402 27.3342 135.777 27.8906 135.406Z" stroke="#898989" stroke-width="1.2" stroke-linecap="round" stroke-linejoin="round"/>
<path d="M70.5542 136.416H61.6126C60.9061 136.416 60.5201 135.592 60.9724 135.049L61.7175 134.155C61.8454 134.002 61.9092 133.808 61.9073 133.608C61.895 132.349 62.116 127.666 66.0834 127.666C70.0508 127.666 70.2717 132.349 70.2595 133.608C70.2575 133.808 70.3214 134.002 70.4493 134.155L71.1944 135.049C71.6467 135.592 71.2607 136.416 70.5542 136.416Z" stroke="#898989" stroke-width="1.00001" stroke-linecap="round" stroke-linejoin="round"/>
<path d="M64 138.084C64 138.084 64.4167 139.334 66.0833 139.334C67.75 139.334 68.1667 138.084 68.1667 138.084" stroke="#898989" stroke-width="1.00001" stroke-linecap="round" stroke-linejoin="round"/>
<path d="M102 130C102 131.105 101.105 132 100 132C98.8954 132 98 131.105 98 130C98 128.895 98.8954 128 100 128C101.105 128 102 128.895 102 130Z" stroke="#898989" stroke-width="1.2"/>
<path d="M98 134L95.8906 135.406C95.3342 135.777 95 136.402 95 137.07V138.067C95 138.582 95.4179 139 95.9333 139H103.5" stroke="#898989" stroke-width="1.2" stroke-linecap="round" stroke-linejoin="round"/>
<path d="M102 134.5H103.5M105 134.5H103.5M103.5 134.5V133M103.5 134.5V136" stroke="#898989" stroke-width="1.2" stroke-linecap="round" stroke-linejoin="round"/>
<path d="M136 130C136 131.105 135.105 132 134 132C132.895 132 132 131.105 132 130C132 128.895 132.895 128 134 128C135.105 128 136 128.895 136 130Z" stroke="#898989" stroke-width="1.2"/>
<path d="M132 134L129.891 135.406C129.334 135.777 129 136.402 129 137.07V138.067C129 138.582 129.418 139 129.933 139H134" stroke="#898989" stroke-width="1.2" stroke-linecap="round" stroke-linejoin="round"/>
<path d="M138.5 130V134.5M138.5 134.5V136.735C138.5 137.18 138.183 137.568 137.738 137.554C137.003 137.531 136 137.267 136 136C136 134 138.5 134.5 138.5 134.5Z" stroke="#898989" stroke-linecap="round" stroke-linejoin="round"/>
<path d="M162.867 128.867V139.134" stroke="#898989" stroke-width="1.2" stroke-linecap="round" stroke-linejoin="round"/>
<path d="M166.289 128.867V139.134" stroke="#898989" stroke-width="1.2" stroke-linecap="round" stroke-linejoin="round"/>
<path d="M169.711 139.134V128.867L173.133 131.236V139.134H169.711Z" stroke="#898989" stroke-width="1.2" stroke-linecap="round" stroke-linejoin="round"/>
<path d="M204.571 136.5C205.455 135.598 206 134.363 206 133C206 130.239 203.761 128 201 128C198.239 128 196 130.239 196 133C196 135.761 198.239 138 201 138C202.399 138 203.663 137.426 204.571 136.5ZM204.571 136.5L207.5 139.5" stroke="#898989" stroke-width="1.2" stroke-linecap="round"/>
<path d="M239 139H241C241.552 139 242 138.552 242 138V133.541C242 133.247 241.87 132.967 241.646 132.777L236.646 128.547C236.273 128.231 235.727 128.231 235.354 128.547L230.354 132.777C230.13 132.967 230 133.247 230 133.541V138C230 138.552 230.448 139 231 139H233" stroke="#898989" stroke-width="1.4" stroke-linecap="round" stroke-linejoin="round"/>
<circle cx="265" cy="134" r="1" fill="#898989"/>
<circle cx="270" cy="134" r="1" fill="#898989"/>
<circle cx="275" cy="134" r="1" fill="#898989"/>
<circle cx="304" cy="134" r="1.63636" stroke="#898989" stroke-width="1.2"/>
<path d="M304 140C300.686 140 298 137.314 298 134C298 130.686 300.686 128 304 128C305.73 128 307.289 128.732 308.384 129.903" stroke="#898989" stroke-width="1.2" stroke-linecap="round"/>
<path d="M309.399 132.439V136.939M309.399 136.939V139.174C309.399 139.619 309.082 140.007 308.637 139.993C307.902 139.97 306.899 139.706 306.899 138.439C306.899 136.439 309.399 136.939 309.399 136.939Z" stroke="#898989" stroke-linecap="round" stroke-linejoin="round"/>
<circle cx="338" cy="134.001" r="1.16667" fill="#898989"/>
<path d="M340.019 131.336C340.764 131.93 341.241 132.845 341.241 133.871C341.241 134.897 340.764 135.812 340.019 136.406M335.981 136.406C335.236 135.812 334.759 134.897 334.759 133.871C334.759 132.896 335.19 132.022 335.871 131.427" stroke="#898989" stroke-width="1.16667" stroke-linecap="round" stroke-linejoin="round"/>
<path d="M341.634 129.334C342.975 130.397 343.833 132.034 343.833 133.871C343.833 135.708 342.975 137.345 341.634 138.408M334.366 138.408C333.025 137.345 332.167 135.708 332.167 133.871C332.167 132.126 332.942 130.561 334.168 129.498" stroke="#898989" stroke-width="1.16667" stroke-linecap="round" stroke-linejoin="round"/>
<rect width="12" height="12" rx="1.8" transform="matrix(1 0 0 -1 26 174.801)" stroke="#898989" stroke-width="1.2" stroke-linejoin="round"/>
<path d="M32.2345 169.353V166.375C32.2345 166.168 32.4024 166 32.6095 166H34M32.2345 169.353V171.375C32.2345 171.71 31.9956 171.999 31.6603 172C30.9983 172.001 30 171.811 30 170.652C30 168.92 32.2345 169.353 32.2345 169.353Z" stroke="#898989" stroke-width="0.9" stroke-linecap="round" stroke-linejoin="round"/>
<path d="M27.2 162.801H36.8V162.801C36.8 161.807 35.9941 161.001 35 161.001H28.9999C28.0058 161.001 27.2 161.807 27.2 162.801V162.801Z" stroke="#898989" stroke-width="0.9" stroke-linejoin="round"/>
<rect width="12" height="12" rx="1.69565" transform="matrix(1 0 0 -1 60 174.801)" stroke="#898989" stroke-width="1.13043" stroke-linejoin="round"/>
<path d="M61.2 162.801H70.8V162.696C70.8 161.76 70.0408 161.001 69.1043 161.001H62.8956C61.9591 161.001 61.2 161.76 61.2 162.696V162.801Z" stroke="#898989" stroke-width="0.847826" stroke-linejoin="round"/>
<path d="M63.6 168.8H66M68.4 168.8H66M66 168.8V166.4M66 168.8V171.2" stroke="#898989" stroke-width="1.14204" stroke-linecap="round" stroke-linejoin="round"/>
<path d="M100.288 169.075V162.378M100.288 162.378L97.5303 165.136M100.288 162.378L103.045 165.136M105.212 168.091V170.848C105.212 171.718 104.507 172.424 103.636 172.424L96.9394 172.424C96.0691 172.424 95.3636 171.718 95.3636 170.848V168.091" stroke="#898989" stroke-width="1.2" stroke-linecap="round" stroke-linejoin="round"/>
<path d="M133.853 163.647V167.176C133.853 168.638 135.038 169.824 136.5 169.824C137.962 169.824 139.147 168.638 139.147 167.176V166.588V163.647C139.147 162.185 137.962 161 136.5 161C135.038 161 133.853 162.185 133.853 163.647Z" stroke="#898989" stroke-width="1.2" stroke-linecap="round"/>
<path d="M131.5 167.471C131.5 167.471 132.088 172.177 136.5 172.177M136.5 172.177C140.912 172.177 141.5 167.471 141.5 167.471M136.5 172.177V174.235" stroke="#898989" stroke-width="1.2" stroke-linecap="round"/>
<path d="M126.5 164H130" stroke="#898989" stroke-width="1.2" stroke-linecap="round"/>
<path d="M126.5 168H129" stroke="#898989" stroke-width="1.2" stroke-linecap="round"/>
<path d="M126.5 172H130" stroke="#898989" stroke-width="1.2" stroke-linecap="round"/>
<path d="M166.853 167.5V169.176C166.853 170.638 168.038 171.824 169.5 171.824V171.824C170.962 171.824 172.147 170.638 172.147 169.176V168.588V165.647C172.147 164.185 170.962 163 169.5 163V163" stroke="#898989" stroke-width="1.2" stroke-linecap="round"/>
<path d="M164.5 169.471C164.5 169.471 165.088 174.177 169.5 174.177M169.5 174.177C173.912 174.177 174.5 169.471 174.5 169.471M169.5 174.177V176.235" stroke="#898989" stroke-width="1.2" stroke-linecap="round"/>
<circle cx="164" cy="163" r="3" fill="#898989"/>
<path d="M202.186 174.373L196.905 172.899C196.37 172.75 196 172.262 196 171.707V163.558C196 162.762 196.742 162.172 197.518 162.353L201.229 163.216C201.79 163.346 202.186 163.846 202.186 164.421V174.373ZM202.186 174.373L207.468 172.899C208.003 172.75 208.373 172.262 208.373 171.707V163.598C208.373 162.789 207.609 162.197 206.826 162.4L203.919 163.151" stroke="#898989" stroke-width="1.2" stroke-linecap="round" stroke-linejoin="round"/>
<rect width="14" height="11.3333" rx="2.66667" transform="matrix(1 0 0 -1 229 173.918)" stroke="#898989" stroke-width="1.2" stroke-linejoin="round"/>
<path d="M234.333 166.457V170.045C234.333 170.292 234.594 170.454 234.816 170.343L238.404 168.549C238.649 168.426 238.649 168.075 238.404 167.953L234.816 166.159C234.594 166.048 234.333 166.209 234.333 166.457Z" fill="#898989"/>
<path d="M275.606 166.199L276.581 167.174M275.606 166.199L271.301 170.503C271.222 170.582 271.172 170.686 271.159 170.797L270.944 172.565C270.893 172.979 270.388 173.154 270.093 172.859L267.57 170.335M275.606 166.199L271.706 162.299M270.731 161.324L271.706 162.299M271.706 162.299L267.401 166.603C267.322 166.682 267.219 166.733 267.108 166.746L265.339 166.961C264.925 167.012 264.751 167.517 265.046 167.812L267.57 170.335M267.57 170.335L264.25 173.655" stroke="#898989" stroke-width="1.2" stroke-linecap="round" stroke-linejoin="round"/>
<path d="M299 173V169.207M304 173V163M309 173V166.793" stroke="#898989" stroke-width="1.4" stroke-linecap="round"/>
<path d="M345 172.227C345 173.206 344.206 174 343.227 174H332.773C331.794 174 331 173.206 331 172.227V164.141V163.773C331 162.794 331.794 162 332.773 162H335.748C336.357 162 336.924 162.313 337.249 162.829L337.552 163.312C337.877 163.827 338.443 164.141 339.053 164.141H343.227C344.206 164.141 345 164.934 345 165.913V172.227Z" stroke="#898989" stroke-width="1.2" stroke-linejoin="round"/>
<path d="M31.4403 196.309C31.6509 195.816 32.3491 195.816 32.5597 196.309L33.7415 199.072C33.8295 199.278 34.0235 199.419 34.2465 199.439L37.2399 199.709C37.7733 199.757 37.989 200.421 37.5858 200.774L35.3228 202.751C35.1542 202.899 35.0801 203.127 35.1299 203.345L35.7981 206.275C35.9172 206.798 35.3524 207.208 34.8925 206.933L32.3121 205.392C32.1199 205.278 31.8801 205.278 31.6879 205.392L29.1075 206.933C28.6476 207.208 28.0828 206.798 28.2019 206.275L28.8701 203.345C28.9199 203.127 28.8458 202.899 28.6772 202.751L26.4142 200.774C26.011 200.421 26.2267 199.757 26.7601 199.709L29.7535 199.439C29.9765 199.419 30.1705 199.278 30.2585 199.072L31.4403 196.309Z" stroke="#898989" stroke-width="1.2"/>
<defs>
<clipPath id="clip0_14_11">
<rect width="14" height="14" fill="white" transform="translate(297 59)"/>
</clipPath>
<clipPath id="clip1_14_11">
<rect width="14" height="12" fill="white" transform="translate(127 94)"/>
</clipPath>
<clipPath id="clip2_14_11">
<rect width="12" height="10.2857" fill="white" transform="translate(162 95)"/>
</clipPath>
<clipPath id="clip3_14_11">
<rect width="14" height="14" fill="white" transform="translate(331 93)"/>
</clipPath>
</defs>
</svg>
