<svg width="623" height="623" viewBox="0 0 623 623" fill="none" xmlns="http://www.w3.org/2000/svg">
<rect x="0.841892" y="0.841892" width="621.316" height="621.316" rx="7.57703" stroke="#9747FF" stroke-width="1.68378" stroke-dasharray="16.84 8.42"/>
<circle cx="53.8811" cy="53.8812" r="20.2054" fill="#1ED760"/>
<path d="M60.0039 52.5562C61.0244 53.1453 61.0244 54.6183 60.0039 55.2074L51.9677 59.8472C50.9472 60.4363 49.6716 59.6999 49.6716 58.5215L49.6716 49.2421C49.6716 48.0637 50.9472 47.3273 51.9677 47.9164L60.0039 52.5562Z" fill="black"/>
<path d="M119.019 51.9101C120.275 52.6357 120.275 54.4498 119.019 55.1754L109.121 60.8898C107.864 61.6155 106.293 60.7084 106.293 59.2572L106.293 47.8284C106.293 46.3771 107.864 45.47 109.121 46.1957L119.019 51.9101Z" fill="#898989"/>
<circle cx="168.378" cy="53.8812" r="20.2054" fill="#1ED760"/>
<path d="M165.011 48.8301V58.9328" stroke="black" stroke-width="3.36757" stroke-linecap="round"/>
<path d="M171.746 48.8301V58.9328" stroke="black" stroke-width="3.36757" stroke-linecap="round"/>
<path d="M221.626 47.9707V60.5439" stroke="#898989" stroke-width="4.19106" stroke-linecap="round"/>
<path d="M230.008 47.9707V60.5439" stroke="#898989" stroke-width="4.19106" stroke-linecap="round"/>
<path d="M287.927 48.8281V58.9308" stroke="#898989" stroke-width="2.52568" stroke-linecap="round"/>
<path d="M285.919 52.5915C286.858 53.1938 286.858 54.5659 285.919 55.1683L278.919 59.6587C277.9 60.3122 276.561 59.5807 276.561 58.3703L276.561 49.3894C276.561 48.179 277.9 47.4475 278.919 48.101L285.919 52.5915Z" fill="#898989"/>
<path d="M335.073 48.8281V58.9308" stroke="#898989" stroke-width="2.52568" stroke-linecap="round"/>
<path d="M337.081 55.1683C336.142 54.566 336.142 53.1938 337.081 52.5915L344.081 48.1011C345.1 47.4475 346.438 48.1791 346.438 49.3895V58.3704C346.438 59.5807 345.1 60.3123 344.081 59.6588L337.081 55.1683Z" fill="#898989"/>
<path d="M399.057 48.8301L394.005 53.8814L399.057 58.9328" stroke="#898989" stroke-width="2.3573" stroke-linecap="round" stroke-linejoin="round"/>
<path d="M452.938 58.9336L457.989 53.8822L452.938 48.8309" stroke="#898989" stroke-width="2.3573" stroke-linecap="round" stroke-linejoin="round"/>
<path d="M506.819 52.1986L511.87 57.25L516.922 52.1986" stroke="#898989" stroke-width="2.3573" stroke-linecap="round" stroke-linejoin="round"/>
<path d="M574.17 55.565L569.119 50.5137L564.068 55.565" stroke="#898989" stroke-width="2.3573" stroke-linecap="round" stroke-linejoin="round"/>
<path d="M49.6716 117.021H47.1459C45.2861 117.021 43.7784 115.513 43.7784 113.653V106.918C43.7784 105.058 45.2861 103.551 47.1459 103.551H60.6162C62.4761 103.551 63.9838 105.058 63.9838 106.918V113.653C63.9838 115.513 62.4761 117.021 60.6162 117.021H53.8811M53.8811 117.021L57.2487 113.653M53.8811 117.021L57.2487 120.389" stroke="#898989" stroke-width="2.02054" stroke-linecap="round" stroke-linejoin="round"/>
<path d="M101.027 103.551V103.551C102.607 103.551 104.084 104.334 104.97 105.641L105.806 106.874L106.932 108.536M119.673 116.844H114.749C113.428 116.844 112.16 116.327 111.216 115.404L110.288 114.495M119.673 116.844L116.181 120.389M119.673 116.844L116.181 113.299" stroke="#898989" stroke-width="2.02054" stroke-linecap="round" stroke-linejoin="round"/>
<path d="M101.027 118.874V118.874C102.611 118.874 104.095 118.104 105.007 116.809L111.18 108.043C112.126 106.7 113.666 105.9 115.31 105.9H119.673M119.673 105.9L116.181 102.355M119.673 105.9L116.181 109.445" stroke="#898989" stroke-width="2.02054" stroke-linecap="round" stroke-linejoin="round"/>
<path d="M173.43 106.078L168.378 111.129M163.327 116.181L168.378 111.129M168.378 111.129L163.327 106.078M168.378 111.129L173.43 116.181" stroke="#898989" stroke-width="2.02054" stroke-linecap="round" stroke-linejoin="round"/>
<path d="M225.627 103.985V111.129M225.627 118.273V111.129M225.627 111.129L218.483 111.129M225.627 111.129H232.771" stroke="#898989" stroke-width="2.02054" stroke-linecap="round" stroke-linejoin="round"/>
<path d="M284.739 104.492L282.876 106.298L281.012 104.492C279.057 102.599 275.922 102.703 274.098 104.723C272.329 106.683 272.085 109.618 273.688 111.717C273.885 111.975 274.078 112.222 274.262 112.448C275.429 113.879 277.974 116.378 279.249 117.719C280.191 118.71 281.038 119.536 281.676 120.138C282.35 120.773 283.39 120.76 284.065 120.125C285.241 119.02 287.045 117.298 288.316 115.962C289.591 114.621 290.322 113.879 291.489 112.448C291.673 112.222 291.867 111.975 292.064 111.717C293.666 109.618 293.423 106.683 291.653 104.723C289.829 102.703 286.694 102.599 284.739 104.492Z" stroke="#898989" stroke-width="2.02054" stroke-linecap="round" stroke-linejoin="round"/>
<path d="M341.988 104.492L340.124 106.298L338.261 104.492C336.306 102.599 333.171 102.703 331.347 104.723C329.577 106.683 329.334 109.618 330.936 111.717C331.133 111.975 331.327 112.222 331.511 112.448C332.678 113.879 335.223 116.378 336.498 117.719C337.44 118.71 338.287 119.536 338.925 120.138C339.598 120.773 340.638 120.76 341.313 120.125C342.49 119.02 344.294 117.298 345.564 115.962C346.839 114.621 347.571 113.879 348.738 112.448C348.922 112.222 349.115 111.975 349.312 111.717C350.915 109.618 350.671 106.683 348.902 104.723C347.078 102.703 343.943 102.599 341.988 104.492Z" fill="#898989" stroke="#898989" stroke-width="2.02054" stroke-linecap="round" stroke-linejoin="round"/>
<path d="M401.669 111.113H397.356M393.043 111.113H397.356M397.356 111.113L397.356 106.801M397.356 111.113V115.426" stroke="#898989" stroke-width="1.68378" stroke-linecap="round" stroke-linejoin="round"/>
<circle cx="397.373" cy="111.13" r="9.26081" stroke="#898989" stroke-width="1.68378"/>
<path d="M454.604 109.5V111.112V115.425" stroke="#898989" stroke-width="1.68378" stroke-linecap="round" stroke-linejoin="round"/>
<path d="M454.62 106.031V106.041V106.069" stroke="#898989" stroke-width="2.02054" stroke-linecap="round" stroke-linejoin="round"/>
<circle cx="454.622" cy="111.13" r="9.26081" stroke="#898989" stroke-width="1.68378"/>
<path d="M521.131 111.13C521.131 113.479 520.257 115.622 518.816 117.255C517.118 119.179 514.636 120.391 511.87 120.391C506.756 120.391 502.609 116.245 502.609 111.13C502.609 108.758 503.5 106.595 504.967 104.956C506.664 103.06 509.128 101.869 511.87 101.869C516.985 101.869 521.131 106.015 521.131 111.13Z" stroke="#898989" stroke-width="1.68378"/>
<path d="M569.119 106.078V115.94M569.119 115.94L572.486 112.573M569.119 115.94L565.751 112.573" stroke="#898989" stroke-width="2.02054" stroke-linecap="round" stroke-linejoin="round"/>
<circle cx="569.119" cy="111.13" r="9.26081" stroke="#898989" stroke-width="1.68378"/>
<path d="M44.7621 162.25H56.7621" stroke="#898989" stroke-width="2" stroke-linecap="round"/>
<path d="M44.7621 169.25H52.7621" stroke="#898989" stroke-width="2" stroke-linecap="round"/>
<path d="M44.7621 176.25H52.7621" stroke="#898989" stroke-width="2" stroke-linecap="round"/>
<path d="M62.7621 161.25V170.184M62.7621 170.184V174.85C62.7621 175.599 62.2293 176.249 61.4794 176.25C59.9979 176.253 57.7621 175.817 57.7621 173.162C57.7621 169.191 62.7621 170.184 62.7621 170.184Z" stroke="#898989" stroke-width="2" stroke-linecap="round" stroke-linejoin="round"/>
<path d="M111.249 163V168.555L115.932 171.445" stroke="#898989" stroke-width="2" stroke-linecap="round" stroke-linejoin="round"/>
<path d="M101.249 168C101.249 173.523 105.726 178 111.249 178C116.771 178 121.249 173.523 121.249 168C121.249 162.477 116.771 158 111.249 158" stroke="#898989" stroke-width="2"/>
<path d="M101.249 168C101.249 162.477 105.726 158 111.249 158" stroke="#898989" stroke-width="2" stroke-linejoin="round" stroke-dasharray="3 3"/>
<path d="M159.253 161H163.909" stroke="#898989" stroke-width="2" stroke-linecap="round"/>
<path d="M159.253 167.223L163.909 167.223" stroke="#898989" stroke-width="2" stroke-linecap="round"/>
<path d="M169.142 159C174.174 159 178.253 163.079 178.253 168.111C178.253 173.142 174.174 177.221 169.142 177.221C169.142 177.221 163.809 177.221 161.142 172.779" stroke="#898989" stroke-width="2" stroke-linecap="round" stroke-linejoin="round"/>
<path d="M169.348 162.557V168.111L174.032 171.002" stroke="#898989" stroke-width="2" stroke-linecap="round" stroke-linejoin="round"/>
<path d="M216.497 161H221.154" stroke="#1ED760" stroke-width="2" stroke-linecap="round"/>
<path d="M216.497 167.223L221.154 167.223" stroke="#1ED760" stroke-width="2" stroke-linecap="round"/>
<path d="M226.387 159C231.418 159 235.497 163.079 235.497 168.111C235.497 173.142 231.418 177.221 226.387 177.221C226.387 177.221 221.053 177.221 218.386 172.779" stroke="#1ED760" stroke-width="2" stroke-linecap="round" stroke-linejoin="round"/>
<path d="M226.593 162.557V168.111L231.276 171.002" stroke="#1ED760" stroke-width="2" stroke-linecap="round" stroke-linejoin="round"/>
<circle cx="225.497" cy="184" r="2" fill="#1ED760"/>
<path d="M274.457 162.765C274.457 161.215 275.713 159.959 277.263 159.959H288.488C290.038 159.959 291.295 161.215 291.295 162.765V162.765C291.295 164.315 290.038 165.572 288.488 165.572H277.263C275.713 165.572 274.457 164.315 274.457 162.765V162.765Z" stroke="#898989" stroke-width="2.3573"/>
<path d="M274.457 171.186L291.295 171.186" stroke="#898989" stroke-width="2.3573" stroke-linecap="round" stroke-linejoin="round"/>
<path d="M274.457 176.797L291.295 176.797" stroke="#898989" stroke-width="2.3573" stroke-linecap="round" stroke-linejoin="round"/>
<path d="M331.705 171.186L348.543 171.186" stroke="#898989" stroke-width="2.3573" stroke-linecap="round" stroke-linejoin="round"/>
<path d="M331.705 176.797L348.543 176.797" stroke="#898989" stroke-width="2.3573" stroke-linecap="round" stroke-linejoin="round"/>
<path d="M337.612 160.814L340.151 163.353M342.69 165.892L340.151 163.353M340.151 163.353L342.69 160.814M340.151 163.353L337.612 165.892" stroke="#898989" stroke-width="2.02054" stroke-linecap="round" stroke-linejoin="round"/>
<path d="M396.531 159.961H391.76C390.211 159.961 388.954 161.217 388.954 162.767V162.767C388.954 164.317 390.211 165.574 391.76 165.574H396.531" stroke="#898989" stroke-width="2.3573" stroke-linecap="round"/>
<path d="M388.954 171.186L405.792 171.186" stroke="#898989" stroke-width="2.3573" stroke-linecap="round" stroke-linejoin="round"/>
<path d="M388.954 176.799L405.792 176.799" stroke="#898989" stroke-width="2.3573" stroke-linecap="round" stroke-linejoin="round"/>
<path d="M400.741 162.487H403.266M405.792 162.487H403.266M403.266 162.487V159.961M403.266 162.487V165.012" stroke="#898989" stroke-width="2.02054" stroke-linecap="round" stroke-linejoin="round"/>
<rect x="451.675" y="159.541" width="11.7865" height="17.6797" rx="2.94662" stroke="#898989" stroke-width="2.06263"/>
<circle cx="457.568" cy="171.327" r="2.94662" fill="#898989"/>
<circle cx="457.568" cy="163.96" r="1.47331" fill="#898989"/>
<circle cx="447.255" cy="175.747" r="1.47331" fill="#898989"/>
<path d="M447.992 170.59H447.255C446.441 170.59 445.782 169.93 445.782 169.116V163.96C445.782 163.146 446.441 162.486 447.255 162.486H447.992" stroke="#898989" stroke-width="2.06263" stroke-linecap="round" stroke-linejoin="round"/>
<path d="M511.029 170.906C511.029 169.977 511.782 169.223 512.712 169.223H520.289C521.219 169.223 521.973 169.977 521.973 170.906V175.116C521.973 176.046 521.219 176.8 520.289 176.8H512.712C511.782 176.8 511.029 176.046 511.029 175.116L511.029 170.906Z" fill="#898989"/>
<path d="M508.503 175.957H504.293C503.363 175.957 502.61 175.203 502.61 174.273V162.487C502.61 161.557 503.363 160.803 504.293 160.803H519.447C520.377 160.803 521.131 161.557 521.131 162.487V166.696" stroke="#898989" stroke-width="2.02054" stroke-linecap="round" stroke-linejoin="round"/>
<g clip-path="url(#clip0_24_316)">
<path d="M560.46 165.734V162.487C560.46 161.889 560.944 161.404 561.542 161.404H564.789" stroke="#898989" stroke-width="2.02054" stroke-linecap="round" stroke-linejoin="round"/>
<path d="M577.778 165.734V162.487C577.778 161.889 577.294 161.404 576.696 161.404H573.449" stroke="#898989" stroke-width="2.02054" stroke-linecap="round" stroke-linejoin="round"/>
<path d="M560.46 171.506V174.754C560.46 175.351 560.944 175.836 561.542 175.836H564.789" stroke="#898989" stroke-width="2.02054" stroke-linecap="round" stroke-linejoin="round"/>
<path d="M577.778 171.506V174.754C577.778 175.351 577.294 175.836 576.696 175.836H573.449" stroke="#898989" stroke-width="2.02054" stroke-linecap="round" stroke-linejoin="round"/>
</g>
<path d="M61.4581 225.628H47.146M47.146 225.628L53.0392 231.521M47.146 225.628L53.0392 219.735" stroke="#898989" stroke-width="2.02054" stroke-linecap="round" stroke-linejoin="round"/>
<path d="M104.395 225.628H118.707M118.707 225.628L112.814 219.734M118.707 225.628L112.814 231.521" stroke="#898989" stroke-width="2.02054" stroke-linecap="round" stroke-linejoin="round"/>
<path d="M168.799 218.473V232.785M168.799 232.785L174.693 226.892M168.799 232.785L162.906 226.892" stroke="#898989" stroke-width="2.02054" stroke-linecap="round" stroke-linejoin="round"/>
<path d="M226.048 232.783V218.471M226.048 218.471L220.155 224.364M226.048 218.471L231.941 224.364" stroke="#898989" stroke-width="2.02054" stroke-linecap="round" stroke-linejoin="round"/>
<g clip-path="url(#clip1_24_316)">
<path d="M275.526 229.242C272.547 227.753 272.547 223.503 275.526 222.013L284.258 217.647C284.706 217.423 285.233 217.749 285.233 218.249L285.233 233.006C285.233 233.507 284.706 233.832 284.258 233.608L275.526 229.242Z" stroke="#898989" stroke-width="2.02054"/>
<path d="M289.611 230.68C290.4 230.465 291.129 229.987 291.71 229.292C292.522 228.32 292.978 227.002 292.978 225.628C292.978 224.254 292.522 222.937 291.71 221.965C291.129 221.269 290.4 220.792 289.611 220.577" stroke="#898989" stroke-width="1.68378" stroke-linecap="round"/>
<path d="M288.769 225.118C288.769 224.935 288.922 224.781 289.091 224.851C289.193 224.893 289.286 224.955 289.364 225.034C289.442 225.112 289.504 225.204 289.547 225.307C289.589 225.409 289.611 225.518 289.611 225.629C289.611 225.739 289.589 225.849 289.547 225.951C289.504 226.053 289.442 226.146 289.364 226.224C289.286 226.302 289.193 226.364 289.091 226.407C288.922 226.476 288.769 226.323 288.769 226.14L288.769 225.629L288.769 225.118Z" fill="#898989" stroke="#898989" stroke-width="0.841892"/>
</g>
<path d="M343.492 218.891C343.492 220.751 341.984 222.259 340.124 222.259C338.265 222.259 336.757 220.751 336.757 218.891C336.757 217.031 338.265 215.523 340.124 215.523C341.984 215.523 343.492 217.031 343.492 218.891Z" stroke="#898989" stroke-width="2.02054"/>
<path d="M333.205 227.995L333.955 227.495C335.782 226.277 337.929 225.627 340.124 225.627C342.32 225.627 344.467 226.277 346.294 227.495L347.044 227.995C347.981 228.619 348.543 229.671 348.543 230.797V232.474C348.543 233.342 347.84 234.046 346.972 234.046H340.124H333.277C332.409 234.046 331.705 233.342 331.705 232.474V230.797C331.705 229.671 332.268 228.619 333.205 227.995Z" stroke="#898989" stroke-width="2.02054" stroke-linecap="round" stroke-linejoin="round"/>
<path d="M400.741 218.891C400.741 220.751 399.233 222.259 397.373 222.259C395.513 222.259 394.005 220.751 394.005 218.891C394.005 217.031 395.513 215.523 397.373 215.523C399.233 215.523 400.741 217.031 400.741 218.891Z" fill="#898989" stroke="#898989" stroke-width="2.02054"/>
<path d="M390.454 227.995L391.203 227.495C393.031 226.277 395.177 225.627 397.373 225.627C399.569 225.627 401.716 226.277 403.543 227.495L404.292 227.995C405.229 228.619 405.792 229.671 405.792 230.797V232.474C405.792 233.342 405.088 234.046 404.22 234.046H397.373H390.526C389.658 234.046 388.954 233.342 388.954 232.474V230.797C388.954 229.671 389.517 228.619 390.454 227.995Z" fill="#898989" stroke="#898989" stroke-width="2.02054" stroke-linecap="round" stroke-linejoin="round"/>
<path d="M463.816 219.735C463.816 221.595 462.309 223.102 460.449 223.102C458.589 223.102 457.081 221.595 457.081 219.735C457.081 217.875 458.589 216.367 460.449 216.367C462.309 216.367 463.816 217.875 463.816 219.735Z" stroke="#898989" stroke-width="2.02054"/>
<path d="M453.529 228.839L454.279 228.339C456.106 227.121 458.253 226.471 460.449 226.471C462.644 226.471 464.791 227.121 466.618 228.339L467.368 228.839C468.305 229.463 468.868 230.515 468.868 231.641V233.318C468.868 234.186 468.164 234.89 467.296 234.89H460.449H453.601C452.733 234.89 452.03 234.186 452.03 233.318V231.641C452.03 230.515 452.592 229.463 453.529 228.839Z" stroke="#898989" stroke-width="2.02054" stroke-linecap="round" stroke-linejoin="round"/>
<path d="M452.397 219.735C452.397 221.595 450.89 223.102 449.03 223.102C447.17 223.102 445.662 221.595 445.662 219.735C445.662 217.875 447.17 216.367 449.03 216.367C450.89 216.367 452.397 217.875 452.397 219.735Z" stroke="#898989" stroke-width="2.02054"/>
<path d="M449.03 226.471V226.471C446.834 226.471 444.687 227.121 442.86 228.339L442.11 228.839C441.174 229.463 440.611 230.515 440.611 231.641V233.318C440.611 234.186 441.314 234.89 442.182 234.89H448.243" stroke="#898989" stroke-width="2.02054" stroke-linecap="round" stroke-linejoin="round"/>
<path d="M521.065 219.735C521.065 221.595 519.557 223.102 517.697 223.102C515.837 223.102 514.33 221.595 514.33 219.735C514.33 217.875 515.837 216.367 517.697 216.367C519.557 216.367 521.065 217.875 521.065 219.735Z" fill="#898989" stroke="#898989" stroke-width="2.02054"/>
<path d="M510.778 228.839L511.528 228.339C513.355 227.121 515.502 226.471 517.697 226.471C519.893 226.471 522.04 227.121 523.867 228.339L524.617 228.839C525.554 229.463 526.116 230.515 526.116 231.641V233.318C526.116 234.186 525.413 234.89 524.545 234.89H517.697H510.85C509.982 234.89 509.278 234.186 509.278 233.318V231.641C509.278 230.515 509.841 229.463 510.778 228.839Z" fill="#898989" stroke="#898989" stroke-width="2.02054" stroke-linecap="round" stroke-linejoin="round"/>
<path d="M509.646 219.735C509.646 221.595 508.138 223.102 506.278 223.102C504.419 223.102 502.911 221.595 502.911 219.735C502.911 217.875 504.419 216.367 506.278 216.367C508.138 216.367 509.646 217.875 509.646 219.735Z" fill="#898989" stroke="#898989" stroke-width="2.02054"/>
<path d="M499.578 228.873L499.975 228.65C501.9 227.568 504.071 227 506.278 227C506.278 227 505.633 229.21 505.492 231C505.439 231.671 505.433 232.51 505.443 233.238C505.455 234.137 504.738 234.889 503.839 234.889H499.431C498.563 234.889 497.86 234.186 497.86 233.318V231.809C497.86 230.591 498.516 229.469 499.578 228.873Z" fill="#898989" stroke="#898989" stroke-width="2.02054" stroke-linecap="round" stroke-linejoin="round"/>
<path d="M576.787 229.696H561.731C560.542 229.696 559.892 228.308 560.654 227.395L561.908 225.889C562.123 225.631 562.231 225.304 562.228 224.967C562.207 222.848 562.579 214.963 569.259 214.963C575.94 214.963 576.312 222.848 576.291 224.967C576.288 225.304 576.395 225.631 576.611 225.889L577.865 227.395C578.627 228.308 577.977 229.696 576.787 229.696Z" stroke="#898989" stroke-width="1.6838" stroke-linecap="round" stroke-linejoin="round"/>
<path d="M565.751 232.502C565.751 232.502 566.453 234.607 569.259 234.607C572.066 234.607 572.767 232.502 572.767 232.502" stroke="#898989" stroke-width="1.6838" stroke-linecap="round" stroke-linejoin="round"/>
<path d="M57.2486 276.139C57.2486 277.999 55.7409 279.507 53.8811 279.507C52.0212 279.507 50.5135 277.999 50.5135 276.139C50.5135 274.279 52.0212 272.771 53.8811 272.771C55.7409 272.771 57.2486 274.279 57.2486 276.139Z" stroke="#898989" stroke-width="2.02054"/>
<path d="M50.5134 282.875L46.9617 285.243C46.0248 285.867 45.4621 286.919 45.4621 288.045V289.722C45.4621 290.59 46.1657 291.294 47.0336 291.294H59.7743" stroke="#898989" stroke-width="2.02054" stroke-linecap="round" stroke-linejoin="round"/>
<path d="M57.2487 283.717H59.7743M62.3 283.717H59.7743M59.7743 283.717V281.191M59.7743 283.717V286.243" stroke="#898989" stroke-width="2.02054" stroke-linecap="round" stroke-linejoin="round"/>
<path d="M114.497 276.139C114.497 277.999 112.99 279.507 111.13 279.507C109.27 279.507 107.762 277.999 107.762 276.139C107.762 274.279 109.27 272.771 111.13 272.771C112.99 272.771 114.497 274.279 114.497 276.139Z" stroke="#898989" stroke-width="2.02054"/>
<path d="M107.762 282.875L104.21 285.243C103.274 285.867 102.711 286.919 102.711 288.045V289.722C102.711 290.59 103.414 291.294 104.282 291.294H111.13" stroke="#898989" stroke-width="2.02054" stroke-linecap="round" stroke-linejoin="round"/>
<path d="M118.707 276.139V283.716M118.707 283.716V287.479C118.707 288.228 118.173 288.881 117.425 288.858C116.186 288.819 114.497 288.374 114.497 286.241C114.497 282.874 118.707 283.716 118.707 283.716Z" stroke="#898989" stroke-width="1.68378" stroke-linecap="round" stroke-linejoin="round"/>
<path d="M159.735 274.232V291.519" stroke="#898989" stroke-width="2.02054" stroke-linecap="round" stroke-linejoin="round"/>
<path d="M165.497 274.232V291.519" stroke="#898989" stroke-width="2.02054" stroke-linecap="round" stroke-linejoin="round"/>
<path d="M171.259 291.519V274.232L177.022 278.222V291.519H171.259Z" stroke="#898989" stroke-width="2.02054" stroke-linecap="round" stroke-linejoin="round"/>
<path d="M216.984 282.75V291.521" stroke="#898989" stroke-width="2.02054" stroke-linecap="round" stroke-linejoin="round"/>
<path d="M222.746 282.75V291.521" stroke="#898989" stroke-width="2.02054" stroke-linecap="round" stroke-linejoin="round"/>
<path d="M228.508 291.519V274.232L231.389 276.227L234.27 278.222V291.519H228.508Z" stroke="#898989" stroke-width="2.02054" stroke-linecap="round" stroke-linejoin="round"/>
<path d="M217.254 276.717H219.78M222.305 276.717H219.78M219.78 276.717V274.191M219.78 276.717V279.243" stroke="#898989" stroke-width="2.02054" stroke-linecap="round" stroke-linejoin="round"/>
<path d="M274.232 274.232V291.519" stroke="#898989" stroke-width="2.02054" stroke-linecap="round" stroke-linejoin="round"/>
<path d="M279.995 274.232V291.519" stroke="#898989" stroke-width="2.02054" stroke-linecap="round" stroke-linejoin="round"/>
<path d="M285.757 291.519V274.232L291.519 278.222V291.519H285.757Z" fill="#898989" stroke="#898989" stroke-width="2.02054" stroke-linecap="round" stroke-linejoin="round"/>
<path d="M344.655 287.031C346.192 285.462 347.14 283.314 347.14 280.944C347.14 276.141 343.247 272.248 338.445 272.248C333.642 272.248 329.749 276.141 329.749 280.944C329.749 285.746 333.642 289.639 338.445 289.639C340.877 289.639 343.076 288.641 344.655 287.031ZM344.655 287.031L349.749 292.248" stroke="#898989" stroke-width="2.02054" stroke-linecap="round"/>
<path d="M401.906 287.031C403.443 285.462 404.391 283.314 404.391 280.944C404.391 276.141 400.498 272.248 395.696 272.248C390.893 272.248 387 276.141 387 280.944C387 285.746 390.893 289.639 395.696 289.639C398.128 289.639 400.327 288.641 401.906 287.031ZM401.906 287.031L407 292.248" stroke="#898989" stroke-width="2.02054" stroke-linecap="round"/>
<circle cx="395.7" cy="280.948" r="5.7" fill="#898989"/>
<path d="M459.673 291.295H463.041C463.97 291.295 464.724 290.541 464.724 289.611V282.103C464.724 281.608 464.506 281.137 464.128 280.817L455.709 273.694C455.081 273.163 454.162 273.163 453.534 273.694L445.115 280.817C444.737 281.137 444.519 281.608 444.519 282.103V289.611C444.519 290.541 445.273 291.295 446.203 291.295H449.57" stroke="#898989" stroke-width="2.3573" stroke-linecap="round" stroke-linejoin="round"/>
<path d="M501.768 282.103V289.611C501.768 290.541 502.521 291.295 503.451 291.295H506.819C507.385 291.324 507.86 290.872 507.86 290.306V285.398C507.86 284.472 508.607 283.72 509.533 283.714L514.32 283.683C515.254 283.677 516.015 284.433 516.015 285.367V290.388C516.015 290.889 516.421 291.295 516.922 291.295H520.289C521.219 291.295 521.973 290.541 521.973 289.611V282.103C521.973 281.608 521.755 281.137 521.377 280.817L512.958 273.694C512.33 273.163 511.41 273.163 510.783 273.694L502.364 280.817C501.986 281.137 501.768 281.608 501.768 282.103Z" fill="#898989" stroke="#898989" stroke-width="2.3573" stroke-linecap="round" stroke-linejoin="round"/>
<circle cx="560.7" cy="282.877" r="1.68378" fill="#898989"/>
<circle cx="569.119" cy="282.877" r="1.68378" fill="#898989"/>
<circle cx="577.538" cy="282.877" r="1.68378" fill="#898989"/>
<circle cx="53.881" cy="340.124" r="2.75528" stroke="#898989" stroke-width="2.02054"/>
<path d="M53.881 350.227C48.3014 350.227 43.7783 345.704 43.7783 340.124C43.7783 334.545 48.3014 330.021 53.881 330.021C56.7936 330.021 59.4184 331.254 61.2621 333.226" stroke="#898989" stroke-width="2.02054" stroke-linecap="round"/>
<path d="M62.9715 337.498V345.075M62.9715 345.075V348.838C62.9715 349.587 62.438 350.241 61.6893 350.217C60.451 350.178 58.7621 349.734 58.7621 347.601C58.7621 344.233 62.9715 345.075 62.9715 345.075Z" stroke="#898989" stroke-width="1.68378" stroke-linecap="round" stroke-linejoin="round"/>
<circle cx="111.13" cy="340.125" r="1.96441" fill="#898989"/>
<path d="M114.53 335.639C115.783 336.638 116.587 338.179 116.587 339.907C116.587 341.635 115.783 343.176 114.53 344.176M107.73 344.176C106.476 343.176 105.673 341.635 105.673 339.907C105.673 338.265 106.398 336.793 107.545 335.793" stroke="#898989" stroke-width="1.96441" stroke-linecap="round" stroke-linejoin="round"/>
<path d="M117.249 332.268C119.506 334.057 120.952 336.814 120.952 339.907C120.952 343 119.506 345.757 117.249 347.546M105.01 347.546C102.754 345.757 101.308 343 101.308 339.907C101.308 336.969 102.613 334.334 104.678 332.543" stroke="#898989" stroke-width="1.96441" stroke-linecap="round" stroke-linejoin="round"/>
<rect width="20" height="20" rx="3" transform="matrix(1 0 0 -1 158.249 351.248)" stroke="#898989" stroke-width="2" stroke-linejoin="round"/>
<path d="M160.249 331.248H176.249V331.248C176.249 329.591 174.906 328.248 173.249 328.248H163.249C161.592 328.248 160.249 329.591 160.249 331.248V331.248Z" stroke="#898989" stroke-width="1.5" stroke-linejoin="round"/>
<path d="M168.761 342.204V336.873C168.761 336.528 169.041 336.248 169.386 336.248H171.503M168.761 342.204V345.221C168.761 345.776 168.367 346.259 167.813 346.247C166.851 346.225 165.503 345.892 165.503 344.189C165.503 341.542 168.761 342.204 168.761 342.204Z" stroke="#898989" stroke-width="1.5" stroke-linecap="round" stroke-linejoin="round"/>
<rect width="20" height="20" rx="3" transform="matrix(1 0 0 -1 215.249 351.248)" stroke="#898989" stroke-width="2" stroke-linejoin="round"/>
<path d="M217.249 331.248H233.249V331.248C233.249 329.591 231.906 328.248 230.249 328.248H220.249C218.592 328.248 217.249 329.591 217.249 331.248V331.248Z" stroke="#898989" stroke-width="1.5" stroke-linejoin="round"/>
<path d="M221.249 341.248H225.249M229.249 341.248H225.249M225.249 341.248V337.248M225.249 341.248V345.248" stroke="#898989" stroke-width="2.02054" stroke-linecap="round" stroke-linejoin="round"/>
<path d="M293.503 346.248C293.503 347.905 292.16 349.248 290.503 349.248H274.503C272.846 349.248 271.503 347.905 271.503 346.248V334.048V333.748C271.503 332.091 272.846 330.748 274.503 330.748H278.862C279.884 330.748 280.836 331.269 281.388 332.129L281.733 332.667C282.284 333.528 283.236 334.048 284.258 334.048H290.503C292.16 334.048 293.503 335.391 293.503 337.048V346.248Z" stroke="#898989" stroke-width="2" stroke-linejoin="round"/>
<path d="M340.609 341.934V330.658M340.609 330.658L335.966 335.301M340.609 330.658L345.252 335.301M348.9 340.276V344.919C348.9 346.384 347.712 347.572 346.247 347.572L334.971 347.572C333.506 347.572 332.318 346.384 332.318 344.919V340.276" stroke="#898989" stroke-width="2.02054" stroke-linecap="round" stroke-linejoin="round"/>
<path d="M397.099 333.695V339.625C397.099 342.081 399.09 344.072 401.546 344.072C404.002 344.072 405.993 342.081 405.993 339.625V338.636V333.695C405.993 331.239 404.002 329.248 401.546 329.248C399.09 329.248 397.099 331.239 397.099 333.695Z" stroke="#898989" stroke-width="2.016" stroke-linecap="round"/>
<path d="M393.146 340.119C393.146 340.119 394.134 348.025 401.546 348.025M401.546 348.025C408.958 348.025 409.946 340.119 409.946 340.119M401.546 348.025V351.484" stroke="#898989" stroke-width="2.016" stroke-linecap="round"/>
<path d="M384.746 334.289H390.626" stroke="#898989" stroke-width="2.016" stroke-linecap="round"/>
<path d="M384.746 341.008H388.946" stroke="#898989" stroke-width="2.016" stroke-linecap="round"/>
<path d="M384.746 347.729H390.626" stroke="#898989" stroke-width="2.016" stroke-linecap="round"/>
<path d="M446.741 332.32V348.624C446.741 349.567 447.807 350.116 448.575 349.567L453.511 346.041C454.318 345.465 455.401 345.465 456.208 346.041L461.145 349.567C461.912 350.116 462.979 349.567 462.979 348.624V332.32C462.979 331.039 461.94 330 460.659 330H449.06C447.779 330 446.741 331.039 446.741 332.32Z" stroke="#898989" stroke-width="2.3197"/>
<path d="M503.741 332.32V348.624C503.741 349.567 504.807 350.116 505.575 349.567L510.511 346.041C511.318 345.465 512.401 345.465 513.208 346.041L518.145 349.567C518.912 350.116 519.979 349.567 519.979 348.624V332.32C519.979 331.039 518.94 330 517.659 330H506.06C504.779 330 503.741 331.039 503.741 332.32Z" fill="#898989" stroke="#898989" stroke-width="2.3197"/>
<path d="M569.243 350.248L560.706 347.865C559.841 347.624 559.243 346.837 559.243 345.939V332.767C559.243 331.479 560.442 330.527 561.696 330.819L567.696 332.214C568.602 332.425 569.243 333.232 569.243 334.162V350.248ZM569.243 350.248L577.781 347.865C578.645 347.624 579.243 346.837 579.243 345.939V332.831C579.243 331.523 578.009 330.567 576.743 330.894L572.043 332.109" stroke="#898989" stroke-width="2" stroke-linecap="round" stroke-linejoin="round"/>
<rect width="21" height="17" rx="4" transform="matrix(1 0 0 -1 43.5081 406.248)" stroke="#1ED760" stroke-width="2" stroke-linejoin="round"/>
<path d="M51.5081 395.057V400.439C51.5081 400.811 51.8992 401.052 52.2317 400.886L57.6136 398.195C57.9822 398.011 57.9822 397.485 57.6136 397.301L52.2317 394.61C51.8992 394.444 51.5081 394.685 51.5081 395.057Z" fill="#1ED760"/>
<path d="M120.245 393.593L121.763 395.111M120.245 393.593L113.545 400.293C113.422 400.417 113.343 400.577 113.322 400.75L112.988 403.504C112.909 404.148 112.123 404.419 111.664 403.96L107.735 400.032M120.245 393.593L114.174 387.522M112.656 386.004L114.174 387.522M114.174 387.522L107.474 394.222C107.35 394.345 107.19 394.424 107.017 394.445L104.263 394.779C103.619 394.858 103.348 395.644 103.807 396.103L107.735 400.032M107.735 400.032L102.568 405.199" stroke="#898989" stroke-width="2" stroke-linecap="round" stroke-linejoin="round"/>
<path d="M177.494 393.593L179.012 395.111M177.494 393.593L170.794 400.293C170.67 400.417 170.592 400.577 170.571 400.75L170.236 403.504C170.158 404.148 169.372 404.419 168.913 403.96L164.984 400.032M177.494 393.593L171.423 387.522M169.905 386.004L171.423 387.522M171.423 387.522L164.722 394.222C164.599 394.345 164.438 394.424 164.265 394.445L161.512 394.779C160.868 394.858 160.596 395.644 161.055 396.103L164.984 400.032M164.984 400.032L159.816 405.199" stroke="#1ED760" stroke-width="2" stroke-linecap="round" stroke-linejoin="round"/>
<path d="M225.508 386.196L226.012 387.99C227.237 392.355 230.649 395.767 235.014 396.992L236.808 397.496L235.014 398C230.649 399.225 227.237 402.637 226.012 407.002L225.508 408.796L225.004 407.002C223.779 402.637 220.367 399.225 216.002 398L214.208 397.496L216.002 396.992C220.367 395.767 223.779 392.355 225.004 387.99L225.508 386.196Z" stroke="#898989" stroke-width="2"/>
<path d="M282.757 386.196L283.26 387.99C284.486 392.355 287.897 395.767 292.263 396.992L294.057 397.496L292.263 398C287.897 399.225 284.486 402.637 283.26 407.002L282.757 408.796L282.253 407.002C281.027 402.637 277.616 399.225 273.251 398L271.456 397.496L273.251 396.992C277.616 395.767 281.027 392.355 282.253 387.99L282.757 386.196Z" fill="#898989" stroke="#898989" stroke-width="2"/>
<path d="M330.995 391.248H348.995" stroke="#898989" stroke-width="2" stroke-linecap="round"/>
<path d="M330.995 397.248H348.995" stroke="#898989" stroke-width="2" stroke-linecap="round"/>
<path d="M330.995 403.248H348.995" stroke="#898989" stroke-width="2" stroke-linecap="round"/>
<circle cx="393.895" cy="389.9" r="1.9" fill="#898989"/>
<circle cx="401.495" cy="389.9" r="1.9" fill="#898989"/>
<circle cx="393.895" cy="397.5" r="1.9" fill="#898989"/>
<circle cx="393.895" cy="405.099" r="1.9" fill="#898989"/>
<circle cx="401.495" cy="397.5" r="1.9" fill="#898989"/>
<circle cx="401.495" cy="405.099" r="1.9" fill="#898989"/>
<path d="M445.492 391.248H463.492" stroke="#898989" stroke-width="2" stroke-linecap="round"/>
<path d="M449 397.248H459" stroke="#898989" stroke-width="2" stroke-linecap="round"/>
<path d="M452 403.248H456" stroke="#898989" stroke-width="2" stroke-linecap="round"/>
<path d="M518.643 403.973V390.697M518.643 390.697L514 395.34M518.643 390.697L523.286 395.34" stroke="#898989" stroke-width="2.02054" stroke-linecap="round" stroke-linejoin="round"/>
<path d="M505.643 390.973L505.643 404.249M505.643 404.249L510.286 399.606M505.643 404.249L501 399.606" stroke="#898989" stroke-width="2.02054" stroke-linecap="round" stroke-linejoin="round"/>
<path d="M565.497 391.248H577.497" stroke="#898989" stroke-width="2" stroke-linecap="round"/>
<path d="M559.914 391.248H560.914" stroke="#898989" stroke-width="2" stroke-linecap="round"/>
<path d="M565.497 397.248H577.497" stroke="#898989" stroke-width="2" stroke-linecap="round"/>
<path d="M559.914 397.248H560.914" stroke="#898989" stroke-width="2" stroke-linecap="round"/>
<path d="M565.497 403.248H577.497" stroke="#898989" stroke-width="2" stroke-linecap="round"/>
<path d="M559.914 403.248H560.914" stroke="#898989" stroke-width="2" stroke-linecap="round"/>
<rect x="44.0107" y="444.496" width="8.18182" height="8.18182" rx="2" stroke="#898989" stroke-width="2"/>
<rect x="44.0107" y="456.314" width="8.18182" height="8.18182" rx="2" stroke="#898989" stroke-width="2"/>
<rect x="55.829" y="444.496" width="8.18182" height="8.18182" rx="2" stroke="#898989" stroke-width="2"/>
<rect x="55.829" y="456.314" width="8.18182" height="8.18182" rx="2" stroke="#898989" stroke-width="2"/>
<path d="M104.751 461.996V456.496M110.751 461.996V447.496M116.751 461.996V452.996" stroke="#898989" stroke-width="2" stroke-linecap="round"/>
<circle cx="168.757" cy="454.496" r="10.1" stroke="#898989" stroke-width="1.8"/>
<circle cx="226.005" cy="454.496" r="11" fill="#1ED760"/>
<path d="M221.757 454.996L224.757 457.996L230.257 452.496" stroke="black" stroke-width="2" stroke-linecap="round" stroke-linejoin="round"/>
<g clip-path="url(#clip2_24_316)">
<path d="M288.422 455.092C291.228 455.092 293.503 452.818 293.503 450.012C293.503 447.206 291.228 444.932 288.422 444.932C285.616 444.932 283.342 447.206 283.342 450.012M288.422 455.092C285.616 455.092 283.342 452.818 283.342 450.012M288.422 455.092L277.557 464.735C277.076 465.162 276.455 465.398 275.811 465.398V465.398C274.359 465.398 273.181 464.21 273.181 462.758V462.758C273.181 462.123 273.41 461.505 273.825 461.025L283.342 450.012" stroke="#898989" stroke-width="1.68378"/>
</g>
<path d="M333 453.731L338.38 459.111L348.243 449.248" stroke="#898989" stroke-width="2.02" stroke-linecap="round" stroke-linejoin="round"/>
<path d="M396.581 445.398C396.927 444.589 398.073 444.589 398.419 445.398L400.361 449.938C400.506 450.276 400.824 450.508 401.191 450.541L406.108 450.984C406.985 451.063 407.339 452.154 406.677 452.733L402.959 455.983C402.682 456.225 402.56 456.599 402.642 456.958L403.74 461.772C403.935 462.63 403.007 463.304 402.252 462.853L398.013 460.321C397.697 460.133 397.303 460.133 396.987 460.321L392.748 462.853C391.993 463.304 391.065 462.63 391.26 461.772L392.358 456.958C392.44 456.599 392.318 456.225 392.041 455.983L388.323 452.733C387.661 452.154 388.015 451.063 388.892 450.984L393.809 450.541C394.176 450.508 394.494 450.276 394.639 449.938L396.581 445.398Z" stroke="#898989" stroke-width="2"/>
<path d="M445.751 461.838V453.85C445.751 452.976 446.46 452.267 447.335 452.267H448.968C449.532 452.267 450.054 451.966 450.337 451.479L453.329 446.33C454.142 444.931 456.282 445.508 456.282 447.126V450.683C456.282 451.557 456.991 452.267 457.866 452.267H459.988C462.024 452.267 463.531 454.159 463.076 456.143L461.969 460.963C461.639 462.402 460.358 463.422 458.882 463.422H447.335C446.46 463.422 445.751 462.713 445.751 461.838Z" stroke="#898989" stroke-width="2"/>
<path d="M521.214 447.832L521.214 455.819C521.214 456.694 520.505 457.403 519.63 457.403L517.998 457.403C517.434 457.403 516.912 457.704 516.628 458.191L513.637 463.34C512.824 464.739 510.683 464.162 510.683 462.544L510.683 458.987C510.683 458.112 509.974 457.403 509.1 457.403L506.977 457.403C504.942 457.403 503.434 455.511 503.89 453.527L504.997 448.707C505.327 447.268 506.608 446.248 508.084 446.248L519.63 446.248C520.505 446.248 521.214 446.957 521.214 447.832Z" stroke="#898989" stroke-width="2"/>
<path d="M571.354 466H567.122C566.839 466 566.595 465.908 566.388 465.725C566.181 465.542 566.059 465.313 566.021 465.038L565.682 462.48C565.438 462.388 565.208 462.278 564.992 462.15C564.775 462.022 564.563 461.884 564.356 461.738L561.901 462.727C561.638 462.819 561.374 462.828 561.111 462.755C560.848 462.682 560.641 462.526 560.49 462.288L558.402 458.74C558.252 458.502 558.205 458.245 558.261 457.97C558.317 457.695 558.459 457.475 558.684 457.31L560.801 455.742C560.782 455.614 560.772 455.49 560.772 455.371V454.628C560.772 454.509 560.782 454.386 560.801 454.258L558.684 452.69C558.459 452.525 558.317 452.305 558.261 452.03C558.205 451.755 558.252 451.498 558.402 451.26L560.49 447.713C560.622 447.456 560.824 447.295 561.096 447.231C561.37 447.167 561.638 447.181 561.901 447.273L564.356 448.263C564.563 448.116 564.779 447.978 565.005 447.85C565.231 447.722 565.457 447.612 565.682 447.52L566.021 444.963C566.059 444.688 566.181 444.458 566.388 444.275C566.595 444.092 566.839 444 567.122 444H571.354C571.636 444 571.881 444.092 572.088 444.275C572.295 444.458 572.417 444.688 572.455 444.963L572.793 447.52C573.038 447.612 573.269 447.722 573.485 447.85C573.701 447.978 573.913 448.116 574.12 448.263L576.575 447.273C576.838 447.181 577.101 447.172 577.365 447.245C577.628 447.318 577.835 447.474 577.986 447.713L580.074 451.26C580.224 451.498 580.271 451.755 580.215 452.03C580.158 452.305 580.017 452.525 579.792 452.69L577.675 454.258C577.694 454.386 577.703 454.509 577.703 454.628V455.371C577.703 455.49 577.685 455.614 577.647 455.742L579.763 457.31C579.989 457.475 580.13 457.695 580.187 457.97C580.243 458.245 580.196 458.502 580.046 458.74L577.957 462.26C577.807 462.498 577.595 462.659 577.323 462.742C577.05 462.824 576.782 462.819 576.518 462.727L574.12 461.738C573.913 461.884 573.696 462.022 573.471 462.15C573.245 462.278 573.019 462.388 572.793 462.48L572.455 465.038C572.417 465.313 572.295 465.542 572.088 465.725C571.881 465.908 571.636 466 571.354 466Z" stroke="#898989" stroke-width="2"/>
<circle cx="569.238" cy="455" r="3.34783" stroke="#898989" stroke-width="2"/>
<path d="M59.0684 504.594C61.8811 506.392 63.746 509.542 63.746 513.128C63.746 518.718 59.2144 523.25 53.6243 523.25C48.0343 523.25 43.5027 518.718 43.5027 513.128C43.5027 509.542 45.3675 506.392 48.1803 504.594" stroke="#898989" stroke-width="2" stroke-linecap="round"/>
<path d="M53.8482 510.37V501.629" stroke="#898989" stroke-width="2" stroke-linecap="round" stroke-linejoin="round"/>
<path d="M98.5027 508.5V517.991C98.5027 519.525 99.7463 520.769 101.28 520.769H120.725C122.259 520.769 123.503 519.525 123.503 517.991V508.5C123.503 506.966 122.259 505.722 120.725 505.722H119.275C118.741 505.722 118.233 505.492 117.882 505.09L115.948 502.882C115.596 502.48 115.088 502.25 114.555 502.25H107.113C106.579 502.25 106.071 502.48 105.72 502.882L103.786 505.09C103.434 505.492 102.926 505.722 102.393 505.722H101.28C99.7463 505.722 98.5027 506.966 98.5027 508.5Z" stroke="#898989" stroke-width="2" stroke-linecap="round" stroke-linejoin="round"/>
<circle cx="111.003" cy="511.971" r="4.16667" stroke="#898989" stroke-width="2"/>
<path d="M168.897 510.379C169.836 510.981 169.836 512.353 168.897 512.955L161.897 517.446C160.878 518.099 159.54 517.368 159.54 516.157L159.54 507.177C159.54 505.966 160.878 505.235 161.897 505.888L168.897 510.379Z" fill="#898989"/>
<path d="M178.897 510.379C179.836 510.981 179.836 512.353 178.897 512.955L171.897 517.446C170.878 518.099 169.54 517.368 169.54 516.157L169.54 507.177C169.54 505.966 170.878 505.235 171.897 505.888L178.897 510.379Z" fill="#898989"/>
<path d="M225.724 503.886C230.11 503.916 233.689 507.036 235.767 509.386C237.075 510.866 237.053 513.024 235.692 514.456C233.631 516.625 230.139 519.414 225.83 519.384C221.498 519.354 217.955 516.49 215.867 514.288C214.509 512.855 214.473 510.699 215.781 509.219C217.83 506.901 221.356 503.857 225.724 503.886Z" stroke="#898989" stroke-width="2"/>
<circle cx="225.801" cy="511.6" r="4.25215" fill="#898989"/>
<path d="M283.073 518.667C281.11 518.654 279.314 518.035 277.754 517.163M283.073 518.667V521.749M283.073 518.667C285.092 518.681 286.925 518.053 288.503 517.163M294.538 511.509C294.538 511.509 293.893 512.502 292.734 513.749M271.51 511.351C271.51 511.351 272.215 512.424 273.469 513.749M273.469 513.749L270.754 516.464M273.469 513.749C274.534 514.874 275.994 516.18 277.754 517.163M277.754 517.163L275.754 520.249M288.503 517.163L290.254 520.249M288.503 517.163C290.259 516.173 291.701 514.86 292.734 513.749M292.734 513.749L295.254 516.269" stroke="#898989" stroke-width="2" stroke-linecap="round"/>
<circle cx="339.746" cy="513" r="10.1" stroke="#898989" stroke-width="1.8"/>
<path d="M339.746 506V511" stroke="#898989" stroke-width="2" stroke-linecap="round"/>
<path d="M343.746 500H335.746" stroke="#898989" stroke-width="2" stroke-linecap="round"/>
<path d="M391.661 507.217H402.384" stroke="#898989" stroke-width="2" stroke-linecap="round"/>
<path d="M391.661 512.434H398.81" stroke="#898989" stroke-width="2" stroke-linecap="round"/>
<path d="M386.746 515.478V504.609C386.746 503.168 387.914 502 389.355 502H405.137C406.578 502 407.746 503.168 407.746 504.609V515.478C407.746 516.919 406.578 518.087 405.137 518.087H401.852C401.059 518.087 400.309 518.448 399.814 519.067L398.828 520.3C398.132 521.171 396.807 521.171 396.111 520.3L395.125 519.067C394.63 518.448 393.88 518.087 393.087 518.087H389.355C387.914 518.087 386.746 516.919 386.746 515.478Z" stroke="#898989" stroke-width="2"/>
<path d="M448.909 507.217H459.633" stroke="#1ED760" stroke-width="2" stroke-linecap="round"/>
<path d="M448.909 512.434H456.058" stroke="#1ED760" stroke-width="2" stroke-linecap="round"/>
<path d="M443.995 515.478V504.609C443.995 503.168 445.163 502 446.603 502H462.386C463.827 502 464.995 503.168 464.995 504.609V515.478C464.995 516.919 463.827 518.087 462.386 518.087H459.1C458.307 518.087 457.557 518.448 457.062 519.067L456.077 520.3C455.38 521.171 454.056 521.171 453.36 520.3L452.374 519.067C451.879 518.448 451.129 518.087 450.336 518.087H446.603C445.163 518.087 443.995 516.919 443.995 515.478Z" stroke="#1ED760" stroke-width="2"/>
<circle cx="455.243" cy="527" r="2" fill="#1ED760"/>
<path d="M513.593 521.998C513.193 521.998 512.906 521.869 512.731 521.611C512.556 521.352 512.535 521.031 512.668 520.648L516.318 510.973C516.418 510.706 516.606 510.477 516.881 510.285C517.156 510.094 517.443 509.998 517.743 509.998C518.027 509.998 518.31 510.094 518.593 510.285C518.877 510.477 519.068 510.706 519.168 510.973L522.818 520.648C522.952 521.031 522.931 521.352 522.756 521.611C522.581 521.869 522.285 521.998 521.868 521.998C521.685 521.998 521.518 521.94 521.368 521.823C521.218 521.706 521.11 521.565 521.043 521.398L520.193 518.948H515.343L514.468 521.398C514.402 521.565 514.285 521.706 514.118 521.823C513.952 521.94 513.777 521.998 513.593 521.998ZM515.943 517.198H519.543L517.793 512.248H517.693L515.943 517.198ZM507.393 508.548C507.66 509.031 507.943 509.477 508.243 509.885C508.543 510.294 508.893 510.715 509.293 511.148C510.027 510.348 510.635 509.527 511.118 508.686C511.602 507.844 512.01 506.948 512.343 505.998H502.243C501.96 505.998 501.723 505.902 501.531 505.711C501.339 505.519 501.243 505.281 501.243 504.998C501.243 504.715 501.339 504.477 501.531 504.285C501.723 504.094 501.96 503.998 502.243 503.998H508.243V502.998C508.243 502.715 508.339 502.477 508.531 502.285C508.723 502.094 508.96 501.998 509.243 501.998C509.527 501.998 509.764 502.094 509.956 502.285C510.148 502.477 510.243 502.715 510.243 502.998V503.998H516.243C516.527 503.998 516.764 504.094 516.955 504.285C517.147 504.477 517.243 504.715 517.243 504.998C517.243 505.281 517.147 505.519 516.955 505.711C516.764 505.902 516.527 505.998 516.243 505.998H514.343C513.993 507.181 513.518 508.331 512.918 509.448C512.318 510.565 511.577 511.615 510.693 512.598L513.093 515.048L512.343 517.098L509.243 513.998L504.943 518.298C504.76 518.481 504.527 518.573 504.243 518.573C503.96 518.573 503.727 518.481 503.543 518.298C503.36 518.115 503.268 517.881 503.268 517.598C503.268 517.315 503.36 517.081 503.543 516.898L507.893 512.548C507.443 512.031 507.027 511.51 506.643 510.985C506.26 510.46 505.918 509.906 505.618 509.323C505.435 508.973 505.427 508.665 505.593 508.398C505.76 508.131 506.052 507.998 506.468 507.998C506.635 507.998 506.81 508.052 506.993 508.16C507.177 508.269 507.31 508.398 507.393 508.548Z" fill="#898989"/>
<path d="M570.842 521.998C570.442 521.998 570.155 521.869 569.98 521.611C569.805 521.352 569.784 521.031 569.917 520.648L573.567 510.973C573.667 510.706 573.855 510.477 574.13 510.285C574.405 510.094 574.692 509.998 574.992 509.998C575.275 509.998 575.559 510.094 575.842 510.285C576.125 510.477 576.317 510.706 576.417 510.973L580.067 520.648C580.2 521.031 580.18 521.352 580.005 521.611C579.83 521.869 579.534 521.998 579.117 521.998C578.934 521.998 578.767 521.94 578.617 521.823C578.467 521.706 578.359 521.565 578.292 521.398L577.442 518.948H572.592L571.717 521.398C571.65 521.565 571.534 521.706 571.367 521.823C571.2 521.94 571.025 521.998 570.842 521.998ZM573.192 517.198H576.792L575.042 512.248H574.942L573.192 517.198ZM564.642 508.548C564.909 509.031 565.192 509.477 565.492 509.885C565.792 510.294 566.142 510.715 566.542 511.148C567.275 510.348 567.884 509.527 568.367 508.686C568.85 507.844 569.259 506.948 569.592 505.998H559.492C559.209 505.998 558.971 505.902 558.78 505.711C558.588 505.519 558.492 505.281 558.492 504.998C558.492 504.715 558.588 504.477 558.78 504.285C558.971 504.094 559.209 503.998 559.492 503.998H565.492V502.998C565.492 502.715 565.588 502.477 565.78 502.285C565.971 502.094 566.209 501.998 566.492 501.998C566.775 501.998 567.013 502.094 567.205 502.285C567.396 502.477 567.492 502.715 567.492 502.998V503.998H573.492C573.775 503.998 574.013 504.094 574.204 504.285C574.396 504.477 574.492 504.715 574.492 504.998C574.492 505.281 574.396 505.519 574.204 505.711C574.013 505.902 573.775 505.998 573.492 505.998H571.592C571.242 507.181 570.767 508.331 570.167 509.448C569.567 510.565 568.825 511.615 567.942 512.598L570.342 515.048L569.592 517.098L566.492 513.998L562.192 518.298C562.009 518.481 561.775 518.573 561.492 518.573C561.209 518.573 560.975 518.481 560.792 518.298C560.609 518.115 560.517 517.881 560.517 517.598C560.517 517.315 560.609 517.081 560.792 516.898L565.142 512.548C564.692 512.031 564.275 511.51 563.892 510.985C563.509 510.46 563.167 509.906 562.867 509.323C562.684 508.973 562.675 508.665 562.842 508.398C563.009 508.131 563.3 507.998 563.717 507.998C563.884 507.998 564.059 508.052 564.242 508.16C564.425 508.269 564.559 508.398 564.642 508.548Z" fill="#1ED760"/>
<circle cx="569.243" cy="527" r="2" fill="#1ED760"/>
<mask id="path-200-inside-1_24_316" fill="white">
<path d="M50.9101 575.342C50.5196 575.732 49.8864 575.732 49.4959 575.342L47.3746 573.22C46.9841 572.83 46.9841 572.197 47.3746 571.806L61.1632 558.018C62.1395 557.041 63.7224 557.041 64.6987 558.018C65.675 558.994 65.675 560.577 64.6987 561.553L50.9101 575.342Z"/>
</mask>
<path d="M50.9101 575.342C50.5196 575.732 49.8864 575.732 49.4959 575.342L47.3746 573.22C46.9841 572.83 46.9841 572.197 47.3746 571.806L61.1632 558.018C62.1395 557.041 63.7224 557.041 64.6987 558.018C65.675 558.994 65.675 560.577 64.6987 561.553L50.9101 575.342Z" stroke="#898989" stroke-width="4" mask="url(#path-200-inside-1_24_316)"/>
<path d="M46.2566 574.93L47.7854 576.459L44.8808 577.835L46.2566 574.93Z" stroke="#E0E0E0" stroke-opacity="0.5" stroke-width="2" stroke-linecap="round"/>
<path d="M115.658 561.378C115.867 561.821 116.396 562.012 116.839 561.803C117.283 561.594 117.473 561.066 117.264 560.622L115.658 561.378ZM104.729 565.101C105.605 564.958 105.605 564.959 105.605 564.959C105.605 564.959 105.605 564.96 105.605 564.96C105.605 564.96 105.606 564.96 105.606 564.961C105.606 564.961 105.606 564.961 105.605 564.96C105.605 564.959 105.605 564.957 105.604 564.952C105.603 564.944 105.601 564.929 105.598 564.908C105.593 564.867 105.585 564.802 105.578 564.717C105.563 564.547 105.548 564.299 105.551 563.999C105.556 563.394 105.633 562.611 105.903 561.845C106.17 561.086 106.617 560.364 107.357 559.828C108.095 559.293 109.199 558.888 110.876 558.888V557.112C108.903 557.112 107.414 557.594 106.315 558.391C105.218 559.186 104.585 560.24 104.228 561.256C103.873 562.265 103.782 563.257 103.776 563.983C103.772 564.349 103.79 564.656 103.81 564.874C103.819 564.983 103.83 565.071 103.838 565.134C103.842 565.165 103.845 565.19 103.848 565.208C103.849 565.217 103.85 565.225 103.851 565.231C103.852 565.234 103.852 565.236 103.852 565.238C103.852 565.239 103.853 565.24 103.853 565.241C103.853 565.241 103.853 565.242 103.853 565.242C103.853 565.242 103.853 565.243 104.729 565.101ZM110.876 558.888C112.381 558.888 113.422 559.215 114.151 559.665C114.877 560.114 115.349 560.721 115.658 561.378L117.264 560.622C116.833 559.705 116.148 558.812 115.084 558.155C114.022 557.498 112.642 557.112 110.876 557.112V558.888Z" fill="#898989"/>
<path d="M117.089 565.545H104.663C103.192 565.545 102 566.737 102 568.208V577.527C102 578.998 103.192 580.19 104.663 580.19H117.089C118.559 580.19 119.751 578.998 119.751 577.527V568.208C119.751 566.737 118.559 565.545 117.089 565.545Z" stroke="#898989" stroke-width="1.77515"/>
<circle cx="110.876" cy="573.089" r="2.66272" stroke="#898989" stroke-width="1.77515"/>
<path d="M161.978 565.101C161.978 565.101 160.825 558 168.124 558C175.423 558 174.271 565.101 174.271 565.101" stroke="#1ED760" stroke-width="1.77515"/>
<path d="M174.337 565.545H161.911C160.441 565.545 159.249 566.737 159.249 568.208V577.527C159.249 578.998 160.441 580.19 161.911 580.19H174.337C175.808 580.19 177 578.998 177 577.527V568.208C177 566.737 175.808 565.545 174.337 565.545Z" stroke="#1ED760" stroke-width="1.77515"/>
<circle cx="168.124" cy="573.089" r="2.66272" stroke="#1ED760" stroke-width="1.77515"/>
<path d="M225.249 562H218.249C217.144 562 216.249 562.895 216.249 564V564C216.249 565.105 217.144 566 218.249 566H225.249" stroke="#898989" stroke-width="2" stroke-linecap="round"/>
<rect x="229.018" y="561" width="6.23077" height="6.23077" rx="3.11538" stroke="#898989" stroke-width="2"/>
<path d="M226.249 576.23L233.249 576.23C234.353 576.23 235.249 575.335 235.249 574.23V574.23C235.249 573.126 234.353 572.23 233.249 572.23L226.249 572.23" stroke="#898989" stroke-width="2" stroke-linecap="round"/>
<rect x="222.479" y="577.23" width="6.23077" height="6.23077" rx="3.11538" transform="rotate(-180 222.479 577.23)" stroke="#898989" stroke-width="2"/>
<path d="M274.495 576.163C274.303 576.713 273.784 577.082 273.201 577.082C272.251 577.082 271.589 576.139 271.912 575.246L276.58 562.321C276.866 561.528 277.618 561 278.461 561H278.535C279.377 561 280.129 561.528 280.416 562.321L285.073 575.218C285.401 576.125 284.729 577.082 283.765 577.082C283.173 577.082 282.646 576.708 282.451 576.149L281.713 574.034C281.573 573.633 281.194 573.364 280.769 573.364H276.183C275.757 573.364 275.379 573.633 275.239 574.034L274.495 576.163ZM278.135 565.796L276.543 570.322C276.428 570.647 276.67 570.988 277.015 570.988H279.956C280.302 570.988 280.543 570.646 280.427 570.32L278.817 565.796C278.742 565.559 278.217 565.561 278.135 565.796Z" fill="#898989"/>
<path d="M287.806 576.523C287.695 576.811 287.418 577 287.11 577C286.582 577 286.221 576.466 286.417 575.976L288.916 569.738C289.094 569.292 289.526 569 290.007 569C290.487 569 290.919 569.292 291.098 569.738L293.59 575.961C293.79 576.458 293.423 577 292.887 577C292.574 577 292.293 576.808 292.18 576.516L291.89 575.767C291.746 575.395 291.389 575.15 290.991 575.15H288.999C288.6 575.15 288.243 575.395 288.099 575.767L287.806 576.523ZM289.806 571.386L288.799 573.969H291.202L290.183 571.386C290.138 571.258 289.856 571.259 289.806 571.386Z" fill="#898989"/>
<path d="M339.638 559H342.556L339.638 568.655H343.5L342.556 571.31L339.638 579.517L341.79 571.31H337.466L339.638 559Z" fill="#898989"/>
<path d="M342.556 571.31L343.5 568.655H339.638L342.556 559H339.638L337.466 571.31H341.79M342.556 571.31L339.638 579.517L341.79 571.31M342.556 571.31H341.79" stroke="#898989" stroke-width="2" stroke-linecap="round" stroke-linejoin="round"/>
<defs>
<clipPath id="clip0_24_316">
<rect width="20.2054" height="17.3189" fill="white" transform="translate(559.016 159.961)"/>
</clipPath>
<clipPath id="clip1_24_316">
<rect width="23.573" height="23.573" fill="white" transform="translate(271.089 213.842)"/>
</clipPath>
<clipPath id="clip2_24_316">
<rect width="23.573" height="23.573" fill="white" transform="translate(271.497 443.248)"/>
</clipPath>
</defs>
</svg>
